# File created by Blade
# Date/Time:  Tue Sep 30 19:36:22 2014
#---------------------------------------------------------
:version 1.10
:name HOM
:units
  mass 1.0
  length 1.000000
  angle deg
:documentation
     Acclaim Skeleton File
:root
   axis xyz
   order TX TY TZ RX RY RZ
   position 0.000000 0.000000 0.000000
   orientation 0 0 0
:bonedata
   begin
      id 1
      name Spine_dum
      direction 0.000000 1.000000 0.000000
      length 3.241213
      axis 0.0 0.0 0.0 xyz
   end
   begin
      id 2
      name LeftUpLeg_dum
      direction 1.000000 0.000000 0.000000
      length 3.434019
      axis 0.0 0.0 0.0 xyz
   end
   begin
      id 3
      name RightUpLeg_dum
      direction -1.000000 0.000000 0.000000
      length 3.434019
      axis 0.0 0.0 0.0 xyz
   end
   begin
      id 4
      name Spine
      direction 0.000000 1.000000 0.000000
      length 0.000000
      axis 0.0 0.0 0.0 xyz
      dof rx ry rz
   end
   begin
      id 5
      name Spine_dum1
      direction 0.000000 1.000000 0.000000
      length 18.382958
      axis 0.0 0.0 0.0 xyz
   end
   begin
      id 6
      name Spine_dum2
      direction 0.000000 1.000000 0.000000
      length 12.828261
      axis 0.0 0.0 0.0 xyz
   end
   begin
      id 7
      name Spine_dum3
      direction 0.000000 1.000000 0.000000
      length 12.828261
      axis 0.0 0.0 0.0 xyz
   end
   begin
      id 8
      name Head
      direction 0.000000 1.000000 0.000000
      length 4.527550
      axis 0.0 0.0 0.0 xyz
      dof rx ry rz
   end
   begin
      id 9
      name LeftShoulder
      direction 1.000000 0.000000 0.000000
      length 7.748055
      axis 0.0 0.0 -90.0 xyz
      dof rx ry rz
   end
   begin
      id 10
      name LeftArm
      direction 1.000000 0.000000 0.000000
      length 10.635614
      axis 0.0 0.0 -90.0 xyz
      dof rx ry rz
   end
   begin
      id 11
      name LeftForeArm
      direction 1.000000 0.000000 0.000000
      length 8.346755
      axis 0.0 0.0 -90.0 xyz
      dof ry rz rx
   end
   begin
      id 12
      name LeftHand
      direction 0.000000 0.000000 0.000000
      length 0.000000
      axis 0.0 0.0 -90.0 xyz
      dof rx ry rz
   end
   begin
      id 13
      name LeftHand_dum1
      direction 0.000000 0.000000 0.000000
      length 0.000000
      axis 0.0 0.0 -90.0 xyz
   end
   begin
      id 14
      name LeftHand_dum2
      direction 1.000000 0.000000 0.000000
      length 3.937000
      axis 0.0 0.0 -90.0 xyz
   end
   begin
      id 15
      name LeftHandThumb1
      direction 0.000000 0.000000 1.000000
      length 3.937000
      axis 0.0 0.0 -90.0 xyz
      dof rx rz ry
   end
   begin
      id 16
      name RightShoulder
      direction -1.000000 0.000000 0.000000
      length 7.748055
      axis 0.0 0.0 90.0 xyz
      dof rx ry rz
   end
   begin
      id 17
      name RightArm
      direction -1.000000 0.000000 0.000000
      length 10.635614
      axis 0.0 0.0 90.0 xyz
      dof rx ry rz
   end
   begin
      id 18
      name RightForeArm
      direction -1.000000 0.000000 0.000000
      length 8.346755
      axis 0.0 0.0 90.0 xyz
      dof ry rz rx
   end
   begin
      id 19
      name RightHand
      direction 0.000000 0.000000 0.000000
      length 0.000000
      axis 0.0 0.0 90.0 xyz
      dof rx ry rz
   end
   begin
      id 20
      name RightHand_dum1
      direction 0.000000 0.000000 0.000000
      length 0.000000
      axis 0.0 0.0 90.0 xyz
   end
   begin
      id 21
      name RightHand_dum2
      direction -1.000000 0.000000 0.000000
      length 3.937000
      axis 0.0 0.0 90.0 xyz
   end
   begin
      id 22
      name RightHandThumb1
      direction 0.000000 0.000000 1.000000
      length 3.937000
      axis 0.0 0.0 90.0 xyz
      dof rx rz ry
   end
   begin
      id 23
      name LeftUpLeg
      direction 0.000000 -1.000000 0.000000
      length 15.713025
      axis 0.0 0.0 0.0 xyz
      dof rx ry rz
   end
   begin
      id 24
      name LeftLeg
      direction 0.000000 -1.000000 0.000000
      length 14.435119
      axis 0.0 0.0 0.0 xyz
      dof rx ry rz
   end
   begin
      id 25
      name LeftFoot
      direction 0.000000 -0.258819 0.965926
      length 4.938895
      axis 15.0 0.0 0.0 xyz
      dof rx ry rz
   end
   begin
      id 26
      name LeftToeBase
      direction 0.000000 0.000000 1.000000
      length 2.952750
      axis 0.0 0.0 0.0 xyz
      dof rx ry rz
   end
   begin
      id 27
      name RightUpLeg
      direction 0.000000 -1.000000 0.000000
      length 15.713025
      axis 0.0 0.0 0.0 xyz
      dof rx ry rz
   end
   begin
      id 28
      name RightLeg
      direction 0.000000 -1.000000 0.000000
      length 14.435119
      axis 0.0 0.0 0.0 xyz
      dof rx ry rz
   end
   begin
      id 29
      name RightFoot
      direction 0.000000 -0.258819 0.965926
      length 4.938895
      axis 15.0 0.0 0.0 xyz
      dof rx ry rz
   end
   begin
      id 30
      name RightToeBase
      direction 0.000000 0.000000 1.000000
      length 2.952750
      axis 0.0 0.0 0.0 xyz
      dof rx ry rz
   end
:hierarchy
   begin
      root Spine_dum LeftUpLeg_dum RightUpLeg_dum
      Spine_dum Spine
      LeftUpLeg_dum LeftUpLeg
      RightUpLeg_dum RightUpLeg
      Spine Spine_dum1 Spine_dum2 Spine_dum3
      Spine_dum1 Head
      Spine_dum2 LeftShoulder
      Spine_dum3 RightShoulder
      LeftShoulder LeftArm
      LeftArm LeftForeArm
      LeftForeArm LeftHand
      LeftHand LeftHand_dum1 LeftHand_dum2
      LeftHand_dum1 LeftHandThumb1
      RightShoulder RightArm
      RightArm RightForeArm
      RightForeArm RightHand
      RightHand RightHand_dum1 RightHand_dum2
      RightHand_dum1 RightHandThumb1
      LeftUpLeg LeftLeg
      LeftLeg LeftFoot
      LeftFoot LeftToeBase
      RightUpLeg RightLeg
      RightLeg RightFoot
      RightFoot RightToeBase
   end

# File created by Blade
# Date/Time:  Tue Sep 23 19:18:47 2014
# Frame Rate: 120.000 fps
#------------------------------------------------------
:FULLY-SPECIFIED
:DEGREES
351
root 0.561820 33.956432 -0.031987 107.412925 26.280680 -29.522071
Spine -72.550026 0.034351 36.799176
Head -22.374121 11.682512 41.127064
LeftShoulder -10.760274 31.126210 37.995475
LeftArm 100.649133 -49.547186 -97.063552
LeftForeArm -10.605993 -0.000000 118.822643
LeftHand -59.974249 -0.000000 3.124481
LeftHandThumb1 -26.253704 0.000000 33.147579
RightShoulder -34.600927 -38.046606 -4.123556
RightArm 39.532648 57.062444 71.234267
RightForeArm 83.297927 0.000000 -2.973439
RightHand 2.119856 -0.000000 20.778844
RightHandThumb1 -24.326973 -0.000000 -32.862282
LeftUpLeg -115.685619 25.879835 -1.617068
LeftLeg -8.315159 -0.000000 0.000000
LeftFoot 4.896483 -3.839180 8.450844
LeftToeBase 1.013292 -0.000000 -0.000000
RightUpLeg 8.281529 2.004501 -33.016673
RightLeg 53.965980 -0.000000 -0.000000
RightFoot 36.398543 4.317313 -2.211651
RightToeBase 36.143063 -0.000000 -0.000000
352
root 0.548215 33.955992 -0.042939 107.425950 26.057141 -29.671518
Spine -72.535999 0.069648 36.781111
Head -22.247584 11.797030 41.078072
LeftShoulder -10.718650 31.095763 37.992455
LeftArm 100.434389 -50.196842 -97.060262
LeftForeArm -10.897481 0.000000 118.856524
LeftHand -59.804206 -0.000000 3.119473
LeftHandThumb1 -26.253704 0.000000 33.147579
RightShoulder -34.674788 -38.104361 -4.066417
RightArm 39.462313 56.897620 70.990350
RightForeArm 83.389390 -0.000000 -3.200319
RightHand 2.013635 -0.000000 20.922229
RightHandThumb1 -24.326973 -0.000000 -32.862282
LeftUpLeg -115.626425 26.078971 -1.655274
LeftLeg -8.413085 -0.000000 0.000000
LeftFoot 4.985897 -3.558973 8.503618
LeftToeBase 0.813445 -0.000000 -0.000000
RightUpLeg 8.302935 2.133298 -32.917935
RightLeg 53.865837 -0.000000 -0.000000
RightFoot 36.180180 4.284194 -2.358881
RightToeBase 36.028598 -0.000000 -0.000000
353
root 0.536670 33.963940 -0.052772 107.563314 25.810808 -29.869834
Spine -72.623954 0.203650 36.739696
Head -22.100688 11.931255 41.042277
LeftShoulder -10.794952 31.115570 37.964233
LeftArm 100.405453 -50.559716 -97.191698
LeftForeArm -10.991772 0.000000 118.807875
LeftHand -59.896186 -0.000000 2.664949
LeftHandThumb1 -26.253704 0.000000 33.147579
RightShoulder -34.698629 -38.142301 -4.073026
RightArm 39.284313 56.660839 70.615414
RightForeArm 83.598754 -0.000000 -3.537515
RightHand 1.888266 -0.000000 20.999976
RightHandThumb1 -24.326973 -0.000000 -32.862282
LeftUpLeg -115.710500 26.331002 -1.778155
LeftLeg -8.498172 -0.000000 0.000000
LeftFoot 5.051217 -3.329877 8.547012
LeftToeBase 0.759293 -0.000000 -0.000000
RightUpLeg 8.150943 2.221696 -32.864522
RightLeg 53.836701 -0.000000 -0.000000
RightFoot 35.970947 4.111746 -2.358721
RightToeBase 35.962893 -0.000000 -0.000000
354
root 0.524594 33.974537 -0.064631 107.741015 25.542238 -30.024497
Spine -72.751044 0.304599 36.731770
Head -21.946877 12.109582 40.978894
LeftShoulder -10.881287 31.132205 37.920347
LeftArm 100.072334 -51.217806 -96.997397
LeftForeArm -11.359234 -0.000000 118.724884
LeftHand -59.862760 -0.000000 2.813415
LeftHandThumb1 -26.253704 0.000000 33.147579
RightShoulder -34.625612 -38.161772 -4.178611
RightArm 38.873411 56.260980 70.000657
RightForeArm 84.091968 -0.000000 -3.959136
RightHand 1.821289 -0.000000 21.221476
RightHandThumb1 -24.326973 -0.000000 -32.862282
LeftUpLeg -115.862108 26.508730 -1.983563
LeftLeg -8.548825 -0.000000 0.000000
LeftFoot 5.104527 -3.140190 8.543011
LeftToeBase 0.755297 -0.000000 -0.000000
RightUpLeg 8.009348 2.218080 -32.845035
RightLeg 53.848649 -0.000000 -0.000000
RightFoot 35.781521 3.903312 -2.451218
RightToeBase 36.011881 -0.000000 -0.000000
355
root 0.511800 33.984438 -0.080871 107.854030 25.214794 -30.095983
Spine -72.841668 0.264832 36.684554
Head -21.820700 12.280908 40.927427
LeftShoulder -10.994328 31.154995 37.855020
LeftArm 99.830946 -51.758583 -96.833982
LeftForeArm -11.703134 0.000000 118.574034
LeftHand -59.807075 0.000000 2.997400
LeftHandThumb1 -26.253704 0.000000 33.147579
RightShoulder -34.572535 -38.211124 -4.275832
RightArm 38.728851 56.021694 69.748705
RightForeArm 84.268691 -0.000000 -4.288028
RightHand 1.764794 -0.000000 21.413627
RightHandThumb1 -24.326973 -0.000000 -32.862282
LeftUpLeg -115.907825 26.595101 -2.170298
LeftLeg -8.581974 -0.000000 0.000000
LeftFoot 5.206743 -2.982827 8.617046
LeftToeBase 0.646012 -0.000000 -0.000000
RightUpLeg 8.043825 2.152175 -32.887700
RightLeg 53.841564 -0.000000 -0.000000
RightFoot 35.706245 3.760242 -2.506859
RightToeBase 36.012050 -0.000000 -0.000000
356
root 0.494335 33.998553 -0.096547 107.936290 24.960475 -30.239623
Spine -72.881156 0.278297 36.672955
Head -21.688871 12.457438 40.913630
LeftShoulder -11.118922 31.123075 37.775496
LeftArm 99.535060 -52.296932 -96.539039
LeftForeArm -11.984463 -0.000000 118.363702
LeftHand -59.776644 -0.000000 3.039782
LeftHandThumb1 -26.253704 0.000000 33.147579
RightShoulder -34.515897 -38.257788 -4.361815
RightArm 38.435105 55.714793 69.372986
RightForeArm 84.588890 -0.000000 -4.535334
RightHand 1.725356 -0.000000 21.531504
RightHandThumb1 -24.326973 -0.000000 -32.862282
LeftUpLeg -115.966438 26.791253 -2.294655
LeftLeg -8.602808 -0.000000 0.000000
LeftFoot 5.327614 -2.826050 8.668180
LeftToeBase 0.467643 -0.000000 -0.000000
RightUpLeg 8.027055 2.142664 -32.873879
RightLeg 53.855913 -0.000000 -0.000000
RightFoot 35.735679 3.709222 -2.546784
RightToeBase 36.040758 -0.000000 -0.000000
357
root 0.475525 34.009723 -0.113086 107.990092 24.668482 -30.308779
Spine -72.916210 0.221540 36.571760
Head -21.625281 12.566577 40.901298
LeftShoulder -11.177137 31.076463 37.744686
LeftArm 99.178949 -52.853007 -96.218009
LeftForeArm -12.230520 -0.000000 118.169384
LeftHand -59.687585 -0.000000 3.054218
LeftHandThumb1 -26.253704 0.000000 33.147579
RightShoulder -34.555711 -38.305000 -4.427258
RightArm 38.041193 55.411480 69.044268
RightForeArm 84.949081 -0.000000 -4.494113
RightHand 1.627861 -0.000000 21.526294
RightHandThumb1 -24.326973 -0.000000 -32.862282
LeftUpLeg -115.969292 26.896663 -2.426974
LeftLeg -8.612478 -0.000000 0.000000
LeftFoot 5.436028 -2.678462 8.690103
LeftToeBase 0.324685 -0.000000 -0.000000
RightUpLeg 8.156919 2.132175 -32.876173
RightLeg 53.797992 -0.000000 -0.000000
RightFoot 35.855243 3.710913 -2.388866
RightToeBase 36.108746 -0.000000 -0.000000
358
root 0.453891 34.020663 -0.131642 108.016247 24.436936 -30.384732
Spine -72.906708 0.160347 36.542983
Head -21.589890 12.698750 40.858338
LeftShoulder -11.279231 31.048494 37.706734
LeftArm 99.024602 -53.208029 -96.094454
LeftForeArm -12.199534 0.000000 117.951064
LeftHand -59.794440 -0.000000 2.601284
LeftHandThumb1 -26.253704 0.000000 33.147579
RightShoulder -34.567979 -38.311934 -4.509263
RightArm 37.932731 55.373612 69.021089
RightForeArm 84.981750 -0.000000 -4.511700
RightHand 1.649061 0.000000 21.454532
RightHandThumb1 -24.326973 -0.000000 -32.862282
LeftUpLeg -115.966233 27.042729 -2.473361
LeftLeg -8.584906 -0.000000 0.000000
LeftFoot 5.526401 -2.497380 8.722588
LeftToeBase 0.277742 -0.000000 -0.000000
RightUpLeg 8.304475 2.119564 -32.825639
RightLeg 53.730161 -0.000000 -0.000000
RightFoot 36.009797 3.775436 -2.242693
RightToeBase 36.093196 -0.000000 -0.000000
359
root 0.432940 34.029790 -0.150667 108.054042 24.206511 -30.461990
Spine -72.913751 0.114879 36.501997
Head -21.542964 12.818171 40.811974
LeftShoulder -11.297599 30.974081 37.714135
LeftArm 98.643699 -53.815598 -95.743980
LeftForeArm -12.454173 -0.000000 117.739504
LeftHand -59.690435 -0.000000 2.362232
LeftHandThumb1 -26.253704 0.000000 33.147579
RightShoulder -34.591147 -38.365729 -4.581797
RightArm 37.933906 55.455446 69.181574
RightForeArm 84.876571 0.000000 -4.452684
RightHand 1.750062 -0.000000 21.447599
RightHandThumb1 -24.326973 -0.000000 -32.862282
LeftUpLeg -115.986403 27.174431 -2.541728
LeftLeg -8.556057 -0.000000 0.000000
LeftFoot 5.538651 -2.327567 8.948423
LeftToeBase 0.307430 -0.000000 -0.000000
RightUpLeg 8.462249 2.100213 -32.784608
RightLeg 53.632149 -0.000000 -0.000000
RightFoot 36.071648 3.831557 -2.172249
RightToeBase 36.168203 -0.000000 -0.000000
360
root 0.410599 34.037069 -0.167412 108.122436 23.963181 -30.540185
Spine -72.944522 0.080312 36.480852
Head -21.505638 12.925504 40.737680
LeftShoulder -11.392278 30.927617 37.681847
LeftArm 98.275307 -54.389632 -95.385446
LeftForeArm -12.612048 -0.000000 117.504420
LeftHand -59.597097 -0.000000 2.261155
LeftHandThumb1 -26.253704 0.000000 33.147579
RightShoulder -34.592060 -38.327485 -4.686912
RightArm 38.526388 56.060520 69.940658
RightForeArm 84.066616 -0.000000 -4.568247
RightHand 1.930276 -0.000000 21.265388
RightHandThumb1 -24.326973 -0.000000 -32.862282
LeftUpLeg -116.030280 27.305971 -2.628133
LeftLeg -8.531382 -0.000000 0.000000
LeftFoot 5.611277 -2.126664 9.031204
LeftToeBase 0.121769 -0.000000 -0.000000
RightUpLeg 8.602093 2.078971 -32.735243
RightLeg 53.513951 -0.000000 -0.000000
RightFoot 36.167067 3.848903 -2.087259
RightToeBase 36.092472 -0.000000 -0.000000
361
root 0.387948 34.044567 -0.184437 108.196052 23.735537 -30.646249
Spine -72.976478 0.080848 36.421010
Head -21.502435 13.065086 40.685724
LeftShoulder -11.430700 30.938362 37.694783
LeftArm 98.020348 -54.969978 -95.144203
LeftForeArm -12.781898 -0.000000 117.234997
LeftHand -59.592265 -0.000000 2.386029
LeftHandThumb1 -26.253704 0.000000 33.147579
RightShoulder -34.718167 -38.374870 -4.669158
RightArm 38.850044 56.260168 70.314073
RightForeArm 83.760263 -0.000000 -4.668927
RightHand 2.074211 0.000000 21.452117
RightHandThumb1 -24.326973 -0.000000 -32.862282
LeftUpLeg -116.093970 27.468120 -2.708303
LeftLeg -8.493884 -0.000000 0.000000
LeftFoot 5.647794 -1.927189 9.162733
LeftToeBase 0.007056 -0.000000 -0.000000
RightUpLeg 8.695927 2.064204 -32.685937
RightLeg 53.441707 -0.000000 -0.000000
RightFoot 36.103378 3.767993 -2.118146
RightToeBase 36.256481 -0.000000 -0.000000
362
root 0.367166 34.052434 -0.202630 108.275884 23.511526 -30.772073
Spine -72.998356 0.089680 36.378271
Head -21.498822 13.196918 40.646113
LeftShoulder -11.520174 30.974533 37.680249
LeftArm 97.799366 -55.555659 -94.901111
LeftForeArm -12.981191 -0.000000 116.996462
LeftHand -59.579226 -0.000000 2.444914
LeftHandThumb1 -26.253704 0.000000 33.147579
RightShoulder -34.823811 -38.335254 -4.681356
RightArm 38.616506 56.125668 70.119219
RightForeArm 83.832623 -0.000000 -4.572825
RightHand 1.911390 -0.000000 21.415584
RightHandThumb1 -24.326973 -0.000000 -32.862282
LeftUpLeg -116.196780 27.623482 -2.819437
LeftLeg -8.430782 -0.000000 0.000000
LeftFoot 5.685843 -1.708813 9.251512
LeftToeBase -0.152840 -0.000000 0.000000
RightUpLeg 8.743131 2.077634 -32.627340
RightLeg 53.420364 -0.000000 -0.000000
RightFoot 36.060468 3.629012 -2.128667
RightToeBase 36.232100 -0.000000 -0.000000
363
root 0.344648 34.059868 -0.221403 108.308309 23.290445 -30.936492
Spine -72.964913 0.093853 36.309351
Head -21.537958 13.350802 40.648956
LeftShoulder -11.618646 30.972758 37.694490
LeftArm 97.581055 -56.078788 -94.686625
LeftForeArm -13.045211 0.000000 116.787669
LeftHand -59.641894 0.000000 2.221882
LeftHandThumb1 -26.253704 0.000000 33.147579
RightShoulder -34.947974 -38.243934 -4.669136
RightArm 38.428512 55.981564 69.906397
RightForeArm 83.948719 -0.000000 -4.629291
RightHand 1.993810 -0.000000 21.381191
RightHandThumb1 -24.326973 -0.000000 -32.862282
LeftUpLeg -116.297569 27.791181 -2.969600
LeftLeg -8.369937 -0.000000 0.000000
LeftFoot 5.646694 -1.566734 9.515145
LeftToeBase -0.087255 -0.000000 0.000000
RightUpLeg 8.773094 2.131050 -32.574146
RightLeg 53.449803 -0.000000 -0.000000
RightFoot 36.041781 3.525685 -2.160527
RightToeBase 36.201712 -0.000000 -0.000000
